<mxfile host="app.diagrams.net" modified="2023-10-07T03:18:13.239Z" agent="Mozilla/5.0 (Macintosh; Intel Mac OS X 10_15_7) AppleWebKit/537.36 (KHTML, like Gecko) Chrome/117.0.0.0 Safari/537.36" etag="R_YF6WjVTJDa3LeKHhS2" version="21.6.6" type="github">
  <diagram name="Page-1" id="c7558073-3199-34d8-9f00-42111426c3f3">
    <mxGraphModel dx="3139" dy="1500" grid="1" gridSize="10" guides="1" tooltips="1" connect="1" arrows="1" fold="1" page="1" pageScale="1" pageWidth="826" pageHeight="1169" background="none" math="0" shadow="0">
      <root>
        <mxCell id="0" />
        <mxCell id="1" parent="0" />
        <mxCell id="5" value="GLSurfaceView OpenGL Context" style="shape=process;whiteSpace=wrap;align=center;verticalAlign=middle;size=0.0475;fontStyle=1;strokeWidth=3;fillColor=#FFCCCC" parent="1" vertex="1">
          <mxGeometry x="200.99999999999991" y="391" width="400" height="50" as="geometry" />
        </mxCell>
        <mxCell id="6" value="&lt;p style=&quot;margin: 0px; margin-top: 4px; text-align: center; text-decoration: underline;&quot;&gt;&lt;strong&gt;GLThread&lt;/strong&gt;&lt;/p&gt;&lt;hr&gt;&lt;p style=&quot;margin: 0px; margin-left: 8px;&quot;&gt;Render Frame&lt;/p&gt;" style="verticalAlign=middle;align=center;overflow=fill;fontSize=12;fontFamily=Helvetica;html=1;rounded=1;fontStyle=1;strokeWidth=3;fillColor=#E6FFCC" parent="1" vertex="1">
          <mxGeometry x="340" y="210" width="110" height="90" as="geometry" />
        </mxCell>
        <mxCell id="67" value="" style="edgeStyle=elbowEdgeStyle;elbow=horizontal;strokeColor=#990000;strokeWidth=2;exitX=1;exitY=0.5;exitDx=0;exitDy=0;entryX=0.001;entryY=0.66;entryDx=0;entryDy=0;entryPerimeter=0;" parent="1" source="LfiOazo-bAknNzq19aFs-124" target="6" edge="1">
          <mxGeometry width="100" height="100" relative="1" as="geometry">
            <mxPoint x="750.4100000000001" y="840.5" as="sourcePoint" />
            <mxPoint x="730" y="450" as="targetPoint" />
            <Array as="points">
              <mxPoint x="-70" y="580" />
            </Array>
          </mxGeometry>
        </mxCell>
        <mxCell id="68" value="" style="edgeStyle=elbowEdgeStyle;elbow=horizontal;strokeColor=#990000;strokeWidth=2;exitX=0;exitY=0.5;exitDx=0;exitDy=0;" parent="1" source="LfiOazo-bAknNzq19aFs-136" edge="1">
          <mxGeometry width="100" height="100" relative="1" as="geometry">
            <mxPoint x="79.92000000000002" y="1020" as="sourcePoint" />
            <mxPoint x="80" y="1060" as="targetPoint" />
            <Array as="points">
              <mxPoint x="80" y="1050" />
            </Array>
          </mxGeometry>
        </mxCell>
        <mxCell id="LfiOazo-bAknNzq19aFs-138" value="False" style="edgeLabel;html=1;align=center;verticalAlign=middle;resizable=0;points=[];" vertex="1" connectable="0" parent="68">
          <mxGeometry x="0.3306" y="3" relative="1" as="geometry">
            <mxPoint x="22" as="offset" />
          </mxGeometry>
        </mxCell>
        <mxCell id="93" value="" style="edgeStyle=elbowEdgeStyle;elbow=horizontal;strokeColor=#990000;strokeWidth=2;entryX=0.5;entryY=1;entryDx=0;entryDy=0;" parent="1" edge="1">
          <mxGeometry width="100" height="100" relative="1" as="geometry">
            <mxPoint x="390" y="389" as="sourcePoint" />
            <mxPoint x="390.5" y="300" as="targetPoint" />
            <Array as="points">
              <mxPoint x="390" y="349" />
            </Array>
          </mxGeometry>
        </mxCell>
        <mxCell id="LfiOazo-bAknNzq19aFs-99" value="Camera Offscreen OpenGL Context" style="shape=process;whiteSpace=wrap;align=center;verticalAlign=middle;size=0.0475;fontStyle=1;strokeWidth=3;fillColor=#fff2cc;strokeColor=#d6b656;" vertex="1" parent="1">
          <mxGeometry x="200.99999999999991" y="520" width="400" height="50" as="geometry" />
        </mxCell>
        <mxCell id="LfiOazo-bAknNzq19aFs-100" value="" style="edgeStyle=elbowEdgeStyle;elbow=horizontal;strokeColor=#990000;strokeWidth=2" edge="1" parent="1">
          <mxGeometry width="100" height="100" relative="1" as="geometry">
            <mxPoint x="390" y="441" as="sourcePoint" />
            <mxPoint x="390" y="520" as="targetPoint" />
            <Array as="points">
              <mxPoint x="390" y="475" />
            </Array>
          </mxGeometry>
        </mxCell>
        <mxCell id="LfiOazo-bAknNzq19aFs-101" value="create EGLContext &#xa;with share context" style="text;spacingTop=-5;align=center" vertex="1" parent="1">
          <mxGeometry x="430" y="470" width="30" height="20" as="geometry" />
        </mxCell>
        <mxCell id="LfiOazo-bAknNzq19aFs-106" value="&lt;p style=&quot;margin: 0px; margin-top: 4px; text-align: center; text-decoration: underline;&quot;&gt;CameraGLThread&lt;/p&gt;&lt;hr&gt;&lt;p style=&quot;margin: 0px; margin-left: 8px;&quot;&gt;Render Frame&lt;/p&gt;" style="verticalAlign=middle;align=center;overflow=fill;fontSize=12;fontFamily=Helvetica;html=1;rounded=1;fontStyle=1;strokeWidth=3;fillColor=#E6FFCC" vertex="1" parent="1">
          <mxGeometry x="340" y="650" width="110" height="90" as="geometry" />
        </mxCell>
        <mxCell id="LfiOazo-bAknNzq19aFs-107" value="" style="edgeStyle=elbowEdgeStyle;elbow=horizontal;strokeColor=#990000;strokeWidth=2" edge="1" parent="1">
          <mxGeometry width="100" height="100" relative="1" as="geometry">
            <mxPoint x="390" y="570" as="sourcePoint" />
            <mxPoint x="390" y="649" as="targetPoint" />
            <Array as="points">
              <mxPoint x="390" y="604" />
            </Array>
          </mxGeometry>
        </mxCell>
        <mxCell id="LfiOazo-bAknNzq19aFs-108" value="FrameBufferQueue" style="shape=internalStorage;whiteSpace=wrap;html=1;dx=10;dy=10;rounded=1;arcSize=8;strokeWidth=2;fillColor=#e3c800;fontColor=#000000;strokeColor=#B09500;" vertex="1" parent="1">
          <mxGeometry x="-250" y="180" width="130" height="1070" as="geometry" />
        </mxCell>
        <mxCell id="LfiOazo-bAknNzq19aFs-109" value="Camera" style="strokeWidth=2;html=1;shape=mxgraph.flowchart.start_2;whiteSpace=wrap;fillColor=#6d8764;fontColor=#ffffff;strokeColor=#3A5431;" vertex="1" parent="1">
          <mxGeometry x="-40" y="645" width="100" height="100" as="geometry" />
        </mxCell>
        <mxCell id="LfiOazo-bAknNzq19aFs-112" value="Surface" style="shape=parallelogram;html=1;strokeWidth=2;perimeter=parallelogramPerimeter;whiteSpace=wrap;rounded=1;arcSize=12;size=0.23;fillColor=#1ba1e2;fontColor=#ffffff;strokeColor=#006EAF;" vertex="1" parent="1">
          <mxGeometry x="140" y="665" width="100" height="60" as="geometry" />
        </mxCell>
        <mxCell id="LfiOazo-bAknNzq19aFs-113" value="" style="edgeStyle=elbowEdgeStyle;elbow=vertical;strokeColor=#990000;strokeWidth=2" edge="1" parent="1" target="LfiOazo-bAknNzq19aFs-112">
          <mxGeometry width="100" height="100" relative="1" as="geometry">
            <mxPoint x="340" y="700" as="sourcePoint" />
            <mxPoint x="260" y="700" as="targetPoint" />
            <Array as="points">
              <mxPoint x="309" y="700" />
            </Array>
          </mxGeometry>
        </mxCell>
        <mxCell id="LfiOazo-bAknNzq19aFs-116" value="Gen Texture" style="text;spacingTop=-5;align=center" vertex="1" parent="1">
          <mxGeometry x="270" y="680" width="30" height="20" as="geometry" />
        </mxCell>
        <mxCell id="LfiOazo-bAknNzq19aFs-117" value="Create Surface" style="text;spacingTop=-5;align=center" vertex="1" parent="1">
          <mxGeometry x="270" y="705" width="30" height="20" as="geometry" />
        </mxCell>
        <mxCell id="LfiOazo-bAknNzq19aFs-118" value="" style="edgeStyle=elbowEdgeStyle;elbow=horizontal;strokeColor=#990000;strokeWidth=2" edge="1" parent="1">
          <mxGeometry width="100" height="100" relative="1" as="geometry">
            <mxPoint x="189.58" y="725" as="sourcePoint" />
            <mxPoint x="189.58" y="804" as="targetPoint" />
            <Array as="points">
              <mxPoint x="189.58" y="759" />
            </Array>
          </mxGeometry>
        </mxCell>
        <mxCell id="LfiOazo-bAknNzq19aFs-122" value="" style="edgeStyle=elbowEdgeStyle;elbow=vertical;strokeColor=#990000;strokeWidth=2" edge="1" parent="1">
          <mxGeometry width="100" height="100" relative="1" as="geometry">
            <mxPoint x="153" y="694.58" as="sourcePoint" />
            <mxPoint x="60" y="695" as="targetPoint" />
            <Array as="points">
              <mxPoint x="122" y="694.58" />
            </Array>
          </mxGeometry>
        </mxCell>
        <mxCell id="LfiOazo-bAknNzq19aFs-123" value="add target" style="text;spacingTop=-5;align=center" vertex="1" parent="1">
          <mxGeometry x="90" y="670" width="30" height="20" as="geometry" />
        </mxCell>
        <mxCell id="LfiOazo-bAknNzq19aFs-124" value="&lt;p style=&quot;margin: 0px; margin-top: 4px; text-align: center; text-decoration: underline;&quot;&gt;SurfaceTexture&lt;/p&gt;&lt;hr&gt;&lt;p style=&quot;margin: 0px; margin-left: 8px;&quot;&gt;onFrameAvailable&lt;/p&gt;" style="verticalAlign=middle;align=center;overflow=fill;fontSize=12;fontFamily=Helvetica;html=1;rounded=1;fontStyle=1;strokeWidth=3;fillColor=#ffe6cc;strokeColor=#d79b00;" vertex="1" parent="1">
          <mxGeometry x="130" y="810" width="130" height="60" as="geometry" />
        </mxCell>
        <mxCell id="LfiOazo-bAknNzq19aFs-126" value="Render Chain" style="verticalLabelPosition=bottom;verticalAlign=top;html=1;shape=mxgraph.flowchart.parallel_mode;pointerEvents=1" vertex="1" parent="1">
          <mxGeometry x="142.5" y="910" width="95" height="40" as="geometry" />
        </mxCell>
        <mxCell id="LfiOazo-bAknNzq19aFs-127" value="invoke" style="text;spacingTop=-5;align=center" vertex="1" parent="1">
          <mxGeometry x="212.5" y="760" width="30" height="20" as="geometry" />
        </mxCell>
        <mxCell id="LfiOazo-bAknNzq19aFs-128" value="" style="edgeStyle=elbowEdgeStyle;elbow=horizontal;strokeColor=#990000;strokeWidth=2" edge="1" parent="1">
          <mxGeometry width="100" height="100" relative="1" as="geometry">
            <mxPoint x="189.58" y="870" as="sourcePoint" />
            <mxPoint x="190" y="910" as="targetPoint" />
            <Array as="points">
              <mxPoint x="189.58" y="904" />
            </Array>
          </mxGeometry>
        </mxCell>
        <mxCell id="LfiOazo-bAknNzq19aFs-129" value="Oes Texture" style="text;spacingTop=-5;align=center" vertex="1" parent="1">
          <mxGeometry x="212.5" y="880" width="30" height="20" as="geometry" />
        </mxCell>
        <mxCell id="LfiOazo-bAknNzq19aFs-133" value="Stitch Point" style="shape=process;whiteSpace=wrap;html=1;backgroundOutline=1;fillColor=#dae8fc;strokeColor=#6c8ebf;" vertex="1" parent="1">
          <mxGeometry x="220" y="1060" width="120" height="60" as="geometry" />
        </mxCell>
        <mxCell id="LfiOazo-bAknNzq19aFs-134" value="Origin Point" style="shape=process;whiteSpace=wrap;html=1;backgroundOutline=1;fillColor=#dae8fc;strokeColor=#6c8ebf;" vertex="1" parent="1">
          <mxGeometry x="20" y="1060" width="120" height="60" as="geometry" />
        </mxCell>
        <mxCell id="LfiOazo-bAknNzq19aFs-135" value="Other Render Point" style="shape=process;whiteSpace=wrap;html=1;backgroundOutline=1;fillColor=#dae8fc;strokeColor=#6c8ebf;" vertex="1" parent="1">
          <mxGeometry x="130" y="1180" width="120" height="60" as="geometry" />
        </mxCell>
        <mxCell id="LfiOazo-bAknNzq19aFs-136" value="use stitch" style="rhombus;whiteSpace=wrap;html=1;fillColor=#fa6800;fontColor=#000000;strokeColor=#C73500;" vertex="1" parent="1">
          <mxGeometry x="150" y="1010" width="80" height="30" as="geometry" />
        </mxCell>
        <mxCell id="LfiOazo-bAknNzq19aFs-137" value="" style="edgeStyle=elbowEdgeStyle;elbow=horizontal;strokeColor=#990000;strokeWidth=2" edge="1" parent="1">
          <mxGeometry width="100" height="100" relative="1" as="geometry">
            <mxPoint x="189.58" y="970" as="sourcePoint" />
            <mxPoint x="190" y="1010" as="targetPoint" />
            <Array as="points">
              <mxPoint x="189.58" y="1004" />
            </Array>
          </mxGeometry>
        </mxCell>
        <mxCell id="LfiOazo-bAknNzq19aFs-139" value="" style="edgeStyle=elbowEdgeStyle;elbow=horizontal;strokeColor=#990000;strokeWidth=2;exitX=1;exitY=0.5;exitDx=0;exitDy=0;" edge="1" parent="1" source="LfiOazo-bAknNzq19aFs-136">
          <mxGeometry width="100" height="100" relative="1" as="geometry">
            <mxPoint x="160" y="1035" as="sourcePoint" />
            <mxPoint x="280" y="1060" as="targetPoint" />
            <Array as="points">
              <mxPoint x="280" y="1050" />
            </Array>
          </mxGeometry>
        </mxCell>
        <mxCell id="LfiOazo-bAknNzq19aFs-140" value="true" style="edgeLabel;html=1;align=center;verticalAlign=middle;resizable=0;points=[];" vertex="1" connectable="0" parent="LfiOazo-bAknNzq19aFs-139">
          <mxGeometry x="0.3306" y="3" relative="1" as="geometry">
            <mxPoint x="22" as="offset" />
          </mxGeometry>
        </mxCell>
        <mxCell id="LfiOazo-bAknNzq19aFs-141" value="" style="shape=line;html=1;strokeWidth=6;strokeColor=#B20000;fillColor=#e51400;fontColor=#ffffff;" vertex="1" parent="1">
          <mxGeometry x="50" y="1130" width="280" height="10" as="geometry" />
        </mxCell>
        <mxCell id="LfiOazo-bAknNzq19aFs-142" value="" style="edgeStyle=orthogonalEdgeStyle;html=1;verticalAlign=bottom;endArrow=open;endSize=8;strokeColor=#B20000;rounded=0;fillColor=#e51400;" edge="1" source="LfiOazo-bAknNzq19aFs-141" parent="1">
          <mxGeometry relative="1" as="geometry">
            <mxPoint x="190" y="1180" as="targetPoint" />
          </mxGeometry>
        </mxCell>
        <mxCell id="LfiOazo-bAknNzq19aFs-143" value="" style="edgeStyle=elbowEdgeStyle;elbow=vertical;strokeColor=#990000;strokeWidth=2" edge="1" parent="1">
          <mxGeometry width="100" height="100" relative="1" as="geometry">
            <mxPoint x="130" y="1209.58" as="sourcePoint" />
            <mxPoint x="-110" y="1210" as="targetPoint" />
            <Array as="points">
              <mxPoint x="99" y="1209.58" />
            </Array>
          </mxGeometry>
        </mxCell>
        <mxCell id="LfiOazo-bAknNzq19aFs-144" value="enqueue processed texture" style="text;spacingTop=-5;align=center" vertex="1" parent="1">
          <mxGeometry x="-5" y="1190" width="30" height="20" as="geometry" />
        </mxCell>
        <mxCell id="LfiOazo-bAknNzq19aFs-145" value="requestRender" style="text;spacingTop=-5;align=center" vertex="1" parent="1">
          <mxGeometry x="260" y="270" width="30" height="20" as="geometry" />
        </mxCell>
        <mxCell id="LfiOazo-bAknNzq19aFs-147" value="" style="edgeStyle=elbowEdgeStyle;elbow=vertical;strokeColor=#990000;strokeWidth=2" edge="1" parent="1">
          <mxGeometry width="100" height="100" relative="1" as="geometry">
            <mxPoint x="340" y="230" as="sourcePoint" />
            <mxPoint x="220" y="230.42000000000002" as="targetPoint" />
            <Array as="points">
              <mxPoint x="309" y="230" />
            </Array>
          </mxGeometry>
        </mxCell>
        <mxCell id="LfiOazo-bAknNzq19aFs-148" value="invoke" style="text;spacingTop=-5;align=center" vertex="1" parent="1">
          <mxGeometry x="265" y="210" width="30" height="20" as="geometry" />
        </mxCell>
        <mxCell id="LfiOazo-bAknNzq19aFs-151" value="get processed texture" style="text;spacingTop=-5;align=center" vertex="1" parent="1">
          <mxGeometry x="-35" y="210" width="30" height="20" as="geometry" />
        </mxCell>
        <mxCell id="LfiOazo-bAknNzq19aFs-152" value="Screen Renderer" style="shape=process;whiteSpace=wrap;html=1;backgroundOutline=1;fillColor=#dae8fc;strokeColor=#6c8ebf;" vertex="1" parent="1">
          <mxGeometry x="87.5" y="120" width="120" height="60" as="geometry" />
        </mxCell>
        <mxCell id="LfiOazo-bAknNzq19aFs-153" value="" style="edgeStyle=elbowEdgeStyle;elbow=horizontal;strokeColor=#990000;strokeWidth=2;entryX=0.5;entryY=1;entryDx=0;entryDy=0;" edge="1" parent="1" source="LfiOazo-bAknNzq19aFs-146" target="LfiOazo-bAknNzq19aFs-152">
          <mxGeometry width="100" height="100" relative="1" as="geometry">
            <mxPoint x="147.14" y="225" as="sourcePoint" />
            <mxPoint x="147.64" y="190.5" as="targetPoint" />
            <Array as="points">
              <mxPoint x="147.14" y="239.5" />
            </Array>
          </mxGeometry>
        </mxCell>
        <mxCell id="LfiOazo-bAknNzq19aFs-155" value="texture" style="text;spacingTop=-5;align=center" vertex="1" parent="1">
          <mxGeometry x="160" y="200" width="30" height="20" as="geometry" />
        </mxCell>
        <mxCell id="LfiOazo-bAknNzq19aFs-156" value="" style="edgeStyle=elbowEdgeStyle;elbow=vertical;strokeColor=#990000;strokeWidth=2;entryX=0.5;entryY=0;entryDx=0;entryDy=0;" edge="1" parent="1" target="LfiOazo-bAknNzq19aFs-108">
          <mxGeometry width="100" height="100" relative="1" as="geometry">
            <mxPoint x="87.5" y="149.64" as="sourcePoint" />
            <mxPoint x="-180" y="170" as="targetPoint" />
            <Array as="points">
              <mxPoint x="56.5" y="149.64" />
            </Array>
          </mxGeometry>
        </mxCell>
        <mxCell id="LfiOazo-bAknNzq19aFs-157" value="release texture" style="text;spacingTop=-5;align=center" vertex="1" parent="1">
          <mxGeometry x="-50" y="130" width="30" height="20" as="geometry" />
        </mxCell>
        <mxCell id="LfiOazo-bAknNzq19aFs-158" value="Video&lt;br&gt;FrameBuffer&lt;br&gt;Queue" style="shape=internalStorage;whiteSpace=wrap;html=1;dx=10;dy=10;rounded=1;arcSize=8;strokeWidth=2;fillColor=#e51400;fontColor=#ffffff;strokeColor=#B20000;" vertex="1" parent="1">
          <mxGeometry x="860" y="840" width="130" height="410" as="geometry" />
        </mxCell>
        <mxCell id="LfiOazo-bAknNzq19aFs-159" value="" style="edgeStyle=none;noEdgeStyle=1;strokeColor=#990000;strokeWidth=2" edge="1" parent="1">
          <mxGeometry width="100" height="100" relative="1" as="geometry">
            <mxPoint x="250" y="1209.2763157894738" as="sourcePoint" />
            <mxPoint x="850" y="1210" as="targetPoint" />
            <Array as="points">
              <mxPoint x="300" y="1208.75" />
            </Array>
          </mxGeometry>
        </mxCell>
        <mxCell id="LfiOazo-bAknNzq19aFs-160" value="enqueue processed texture" style="text;spacingTop=-5;align=center" vertex="1" parent="1">
          <mxGeometry x="510" y="1190" width="30" height="20" as="geometry" />
        </mxCell>
        <mxCell id="LfiOazo-bAknNzq19aFs-161" value="Encode Offscreen OpenGL Context" style="shape=process;whiteSpace=wrap;align=center;verticalAlign=middle;size=0.0475;fontStyle=1;strokeWidth=3;fillColor=#f8cecc;strokeColor=#b85450;gradientColor=#ea6b66;fontColor=#ffffff;" vertex="1" parent="1">
          <mxGeometry x="794.5" y="520" width="261" height="50" as="geometry" />
        </mxCell>
        <mxCell id="LfiOazo-bAknNzq19aFs-162" value="" style="edgeStyle=elbowEdgeStyle;elbow=vertical;strokeColor=#990000;strokeWidth=2;exitX=1;exitY=0.07;exitDx=0;exitDy=0;exitPerimeter=0;" edge="1" parent="1">
          <mxGeometry width="100" height="100" relative="1" as="geometry">
            <mxPoint x="601" y="415.89" as="sourcePoint" />
            <mxPoint x="920" y="520" as="targetPoint" />
            <Array as="points">
              <mxPoint x="631" y="415.89" />
            </Array>
          </mxGeometry>
        </mxCell>
        <mxCell id="LfiOazo-bAknNzq19aFs-163" value="create EGLContext with share context" style="text;spacingTop=-5;align=center" vertex="1" parent="1">
          <mxGeometry x="770" y="421" width="30" height="20" as="geometry" />
        </mxCell>
        <mxCell id="LfiOazo-bAknNzq19aFs-165" value="" style="edgeStyle=elbowEdgeStyle;elbow=horizontal;strokeColor=#990000;strokeWidth=2;entryX=0.5;entryY=1;entryDx=0;entryDy=0;" edge="1" parent="1" target="LfiOazo-bAknNzq19aFs-146">
          <mxGeometry width="100" height="100" relative="1" as="geometry">
            <mxPoint x="147.14" y="225" as="sourcePoint" />
            <mxPoint x="148" y="180" as="targetPoint" />
            <Array as="points" />
          </mxGeometry>
        </mxCell>
        <mxCell id="LfiOazo-bAknNzq19aFs-146" value="&lt;p style=&quot;margin: 0px; margin-top: 4px; text-align: center; text-decoration: underline;&quot;&gt;GLSurfaceView.Render&lt;/p&gt;&lt;hr&gt;&lt;p style=&quot;margin: 0px; margin-left: 8px;&quot;&gt;onDraw&lt;/p&gt;" style="verticalAlign=middle;align=center;overflow=fill;fontSize=12;fontFamily=Helvetica;html=1;rounded=1;fontStyle=1;strokeWidth=3;fillColor=#ffe6cc;strokeColor=#d79b00;" vertex="1" parent="1">
          <mxGeometry x="82.5" y="200" width="130" height="60" as="geometry" />
        </mxCell>
        <mxCell id="LfiOazo-bAknNzq19aFs-166" value="" style="edgeStyle=none;noEdgeStyle=1;strokeColor=#990000;strokeWidth=2" edge="1" parent="1">
          <mxGeometry width="100" height="100" relative="1" as="geometry">
            <mxPoint x="-120" y="229.99631578947364" as="sourcePoint" />
            <mxPoint x="80" y="230" as="targetPoint" />
            <Array as="points">
              <mxPoint x="-70" y="229.47" />
            </Array>
          </mxGeometry>
        </mxCell>
        <mxCell id="LfiOazo-bAknNzq19aFs-167" value="&lt;p style=&quot;margin: 0px; margin-top: 4px; text-align: center; text-decoration: underline;&quot;&gt;EncodeGLThread&lt;/p&gt;&lt;hr&gt;&lt;p style=&quot;margin: 0px; margin-left: 8px;&quot;&gt;Encode Frame&lt;/p&gt;" style="verticalAlign=middle;align=center;overflow=fill;fontSize=12;fontFamily=Helvetica;html=1;rounded=1;fontStyle=1;strokeWidth=3;fillColor=#E6FFCC" vertex="1" parent="1">
          <mxGeometry x="870" y="655" width="110" height="90" as="geometry" />
        </mxCell>
        <mxCell id="LfiOazo-bAknNzq19aFs-168" value="start" style="text;spacingTop=-5;align=center" vertex="1" parent="1">
          <mxGeometry x="398" y="340" width="30" height="20" as="geometry" />
        </mxCell>
        <mxCell id="LfiOazo-bAknNzq19aFs-170" value="" style="edgeStyle=elbowEdgeStyle;elbow=horizontal;strokeColor=#990000;strokeWidth=2;entryX=0.5;entryY=1;entryDx=0;entryDy=0;exitX=0.5;exitY=0;exitDx=0;exitDy=0;" edge="1" parent="1" source="LfiOazo-bAknNzq19aFs-158">
          <mxGeometry width="100" height="100" relative="1" as="geometry">
            <mxPoint x="924.47" y="834" as="sourcePoint" />
            <mxPoint x="924.97" y="745" as="targetPoint" />
            <Array as="points">
              <mxPoint x="924.47" y="794" />
            </Array>
          </mxGeometry>
        </mxCell>
        <mxCell id="LfiOazo-bAknNzq19aFs-171" value="get texture" style="text;spacingTop=-5;align=center" vertex="1" parent="1">
          <mxGeometry x="940" y="790" width="30" height="20" as="geometry" />
        </mxCell>
        <mxCell id="LfiOazo-bAknNzq19aFs-173" value="" style="edgeStyle=elbowEdgeStyle;elbow=horizontal;strokeColor=#990000;strokeWidth=2" edge="1" parent="1">
          <mxGeometry width="100" height="100" relative="1" as="geometry">
            <mxPoint x="920" y="576" as="sourcePoint" />
            <mxPoint x="920" y="655" as="targetPoint" />
            <Array as="points">
              <mxPoint x="920" y="610" />
            </Array>
          </mxGeometry>
        </mxCell>
        <mxCell id="LfiOazo-bAknNzq19aFs-175" value="start" style="text;spacingTop=-5;align=center" vertex="1" parent="1">
          <mxGeometry x="920" y="600" width="30" height="20" as="geometry" />
        </mxCell>
        <mxCell id="LfiOazo-bAknNzq19aFs-176" value="" style="edgeStyle=elbowEdgeStyle;elbow=horizontal;strokeColor=#990000;strokeWidth=2;exitX=1.041;exitY=0.407;exitDx=0;exitDy=0;exitPerimeter=0;entryX=1;entryY=0.25;entryDx=0;entryDy=0;" edge="1" parent="1" source="LfiOazo-bAknNzq19aFs-167" target="LfiOazo-bAknNzq19aFs-158">
          <mxGeometry width="100" height="100" relative="1" as="geometry">
            <mxPoint x="1090" y="711" as="sourcePoint" />
            <mxPoint x="1090" y="790" as="targetPoint" />
            <Array as="points">
              <mxPoint x="1090" y="745" />
            </Array>
          </mxGeometry>
        </mxCell>
        <mxCell id="LfiOazo-bAknNzq19aFs-177" value="release texture" style="text;spacingTop=-5;align=center" vertex="1" parent="1">
          <mxGeometry x="1025.5" y="665" width="30" height="20" as="geometry" />
        </mxCell>
        <mxCell id="LfiOazo-bAknNzq19aFs-178" value="start" style="text;spacingTop=-5;align=center" vertex="1" parent="1">
          <mxGeometry x="398" y="600" width="30" height="20" as="geometry" />
        </mxCell>
      </root>
    </mxGraphModel>
  </diagram>
</mxfile>
